<svg width="22" height="22" viewBox="0 0 22 22" fill="none" xmlns="http://www.w3.org/2000/svg">
<path d="M20.8057 9.04196H19.9997V8.99996H10.9997V13H16.6517C15.7737 15.493 13.3687 17.118 10.7287 17.004C8.08765 16.89 5.83265 15.063 5.17265 12.504C4.51365 9.94496 5.60465 7.25496 7.86065 5.87896C10.1167 4.50196 13.0067 4.76196 14.9807 6.51996L17.8097 3.69096C14.3417 0.469962 9.09065 0.123962 5.23065 2.86196C1.37065 5.59996 -0.0393464 10.67 1.85465 15.007C3.74765 19.344 8.42465 21.758 13.0567 20.789C17.6887 19.819 21.0047 15.733 20.9997 11C20.9997 10.343 20.9347 9.68696 20.8057 9.04196Z" stroke="#3E3E3E" stroke-width="1.66667" stroke-linecap="round" stroke-linejoin="round"/>
<path d="M2.15662 6.36498L5.45462 8.78098C6.18462 6.96498 7.75362 5.61798 9.65962 5.17098C11.5646 4.72498 13.5696 5.23498 15.0296 6.53798L17.8686 3.70098C15.5846 1.56598 12.4346 0.619981 9.35162 1.14298C6.26962 1.66598 3.60762 3.59898 2.15662 6.36798V6.36498Z" stroke="#3E3E3E" stroke-width="1.66667" stroke-linecap="round" stroke-linejoin="round"/>
<path d="M11.0362 21.0001C13.5262 21.0001 15.9252 20.0711 17.7652 18.3941L14.6582 15.7671C13.1332 16.9221 11.1492 17.2821 9.3152 16.7361C7.4822 16.1891 6.0182 14.8011 5.3752 12.9991L2.1062 15.5211C3.8162 18.8811 7.2662 20.9981 11.0362 21.0001Z" stroke="#3E3E3E" stroke-width="1.66667" stroke-linecap="round" stroke-linejoin="round"/>
<path d="M20.805 8.99913H19.997V8.95813H10.965V12.9721H16.637C16.241 14.0841 15.528 15.0561 14.586 15.7671L17.692 18.3951C19.829 16.5221 21.037 13.8071 20.999 10.9651C20.999 10.3051 20.934 9.64713 20.805 8.99913Z" stroke="#3E3E3E" stroke-width="1.66667" stroke-linecap="round" stroke-linejoin="round"/>
</svg>
